<svg xmlns="http://www.w3.org/2000/svg" viewBox="0 0 256 256" role="img" aria-labelledby="logoTitle logoDesc">
  <title id="logoTitle">Sim Tech Academy logo</title>
  <desc id="logoDesc">A modern academic crest with an open book, shield, and rising spark.</desc>
  <defs>
    <linearGradient id="ringGradient" x1="32" y1="32" x2="224" y2="224" gradientUnits="userSpaceOnUse">
      <stop offset="0" stop-color="#0d5eaf"/>
      <stop offset="0.55" stop-color="#1276bf"/>
      <stop offset="1" stop-color="#18a57d"/>
    </linearGradient>
    <linearGradient id="shieldGradient" x1="96" y1="64" x2="160" y2="152" gradientUnits="userSpaceOnUse">
      <stop offset="0" stop-color="#173f7a"/>
      <stop offset="1" stop-color="#0d2a52"/>
    </linearGradient>
    <linearGradient id="bookGradientLeft" x1="50" y1="142" x2="118" y2="188" gradientUnits="userSpaceOnUse">
      <stop offset="0" stop-color="#1a93e8"/>
      <stop offset="1" stop-color="#116cb2"/>
    </linearGradient>
    <linearGradient id="bookGradientRight" x1="138" y1="142" x2="206" y2="188" gradientUnits="userSpaceOnUse">
      <stop offset="0" stop-color="#ffb11b"/>
      <stop offset="1" stop-color="#f07d1f"/>
    </linearGradient>
    <linearGradient id="sparkGradient" x1="128" y1="38" x2="166" y2="84" gradientUnits="userSpaceOnUse">
      <stop offset="0" stop-color="#ffd44d"/>
      <stop offset="1" stop-color="#ff8d1f"/>
    </linearGradient>
  </defs>

  <circle cx="128" cy="128" r="108" fill="#f7fbff"/>
  <circle cx="128" cy="128" r="104" fill="none" stroke="url(#ringGradient)" stroke-width="12"/>
  <circle cx="128" cy="128" r="88" fill="#ffffff"/>

  <path d="M128 50 164 67v37c0 24-15 44-36 53-21-9-36-29-36-53V67z" fill="url(#shieldGradient)"/>
  <path d="M128 63 154 75v28c0 17-10 32-26 39-16-7-26-22-26-39V75z" fill="#214d92" opacity="0.62"/>

  <path d="M52 150c21-16 46-24 73-24v49c-26-17-51-22-73-22z" fill="url(#bookGradientLeft)"/>
  <path d="M204 150c-21-16-46-24-73-24v49c26-17 51-22 73-22z" fill="url(#bookGradientRight)"/>
  <path d="M128 126v49" stroke="#ffffff" stroke-width="6" stroke-linecap="round"/>
  <path d="M62 157c17-11 36-17 56-18" stroke="#d9f0ff" stroke-width="4" stroke-linecap="round" opacity="0.8"/>
  <path d="M194 157c-17-11-36-17-56-18" stroke="#ffe8b9" stroke-width="4" stroke-linecap="round" opacity="0.85"/>

  <path d="M128 52c4 9 11 16 20 20-9 4-16 11-20 20-4-9-11-16-20-20 9-4 16-11 20-20z" fill="url(#sparkGradient)"/>

  <path d="M50 183c28 17 61 25 94 25s66-8 94-25" fill="none" stroke="#18a57d" stroke-width="8" stroke-linecap="round" opacity="0.9"/>
  <path d="M68 198c20 8 39 12 60 12s40-4 60-12" fill="none" stroke="#0d5eaf" stroke-width="5" stroke-linecap="round" opacity="0.85"/>
</svg>
